<svg width="19" height="19" fill="none" xmlns="http://www.w3.org/2000/svg"><g clip-path="url(#a)"><g clip-path="url(#b)"><g clip-path="url(#c)"><path d="m9.585 14.711-.085.082-.094-.082C5.37 11.188 2.7 8.858 2.7 6.496c0-1.635 1.275-2.861 2.975-2.861 1.309 0 2.584.817 3.034 1.929h1.582c.45-1.112 1.725-1.93 3.034-1.93 1.7 0 2.975 1.227 2.975 2.862 0 2.362-2.67 4.692-6.715 8.215ZM13.325 2A5.198 5.198 0 0 0 9.5 3.7 5.198 5.198 0 0 0 5.675 2C3.057 2 1 3.97 1 6.496c0 3.082 2.89 5.607 7.267 9.425L9.5 17l1.232-1.079C15.11 12.104 18 9.578 18 6.496 18 3.97 15.943 2 13.325 2Z" fill="#fff"/></g></g></g><defs><clipPath id="a"><path fill="#fff" transform="translate(1 2)" d="M0 0h17v15H0z"/></clipPath><clipPath id="b"><path fill="#fff" transform="translate(1 2)" d="M0 0h17v15H0z"/></clipPath><clipPath id="c"><path fill="#fff" transform="translate(1 2)" d="M0 0h17v15H0z"/></clipPath></defs></svg>