<svg width="19" height="19" viewBox="0 0 19 19" fill="none" xmlns="http://www.w3.org/2000/svg">
<g clip-path="url(#clip0_3_2301)">
<g clip-path="url(#clip1_3_2301)">
<g clip-path="url(#clip2_3_2301)">
<path d="M9.58499 14.7111L9.49998 14.793L9.40649 14.7111C5.36899 11.188 2.7 8.85831 2.7 6.49592C2.7 4.86103 3.975 3.63488 5.67499 3.63488C6.98399 3.63488 8.25899 4.45232 8.70948 5.56403H10.2905C10.741 4.45232 12.016 3.63488 13.3249 3.63488C15.025 3.63488 16.3 4.86103 16.3 6.49592C16.3 8.85831 13.6309 11.188 9.58499 14.7111ZM13.3249 2C11.8459 2 10.4265 2.66213 9.49998 3.70027C8.57348 2.66213 7.15398 2 5.67499 2C3.057 2 1 3.97002 1 6.49592C1 9.57767 3.88999 12.1035 8.26749 15.921L9.49998 17L10.7325 15.921C15.1099 12.1035 18 9.57767 18 6.49592C18 3.97002 15.943 2 13.3249 2Z" fill="white"/>
</g>
</g>
</g>
<defs>
<clipPath id="clip0_3_2301">
<rect width="17" height="15" fill="white" transform="translate(1 2)"/>
</clipPath>
<clipPath id="clip1_3_2301">
<rect width="17" height="15" fill="white" transform="translate(1 2)"/>
</clipPath>
<clipPath id="clip2_3_2301">
<rect width="17" height="15" fill="white" transform="translate(1 2)"/>
</clipPath>
</defs>
</svg>
